<?xml version="1.0" encoding="utf-8"?>
<!-- Generator: Adobe Illustrator 19.2.1, SVG Export Plug-In . SVG Version: 6.00 Build 0)  -->
<svg version="1.1" id="Layer_1" xmlns="http://www.w3.org/2000/svg" xmlns:xlink="http://www.w3.org/1999/xlink" x="0px" y="0px"
	 viewBox="0 0 66 66" style="enable-background:new 0 0 66 66;" xml:space="preserve">
<g>
	<path d="M52.2,51l-6.6-6.6c0,0,0,0,0,0l-2.1-2.1c2.4-3,3.9-6.8,3.9-11c0-9.6-7.8-17.5-17.5-17.5s-17.5,7.8-17.5,17.5
		s7.8,17.5,17.5,17.5c4.6,0,8.7-1.8,11.9-4.7l6.3,6.3c0,0,0,0,0,0l2.4,2.4c0.6,0.6,1.5,0.7,2,0.2C52.9,52.5,52.8,51.6,52.2,51z
		 M29.9,46.3c-8.3,0-15-6.8-15-15s6.8-15,15-15s15.1,6.8,15.1,15S38.2,46.3,29.9,46.3z"/>
</g>
</svg>
